{
date = "2013-12-03 17:14:36 +0000";
designer = "Shinji Pons";
designerURL = www.shinjipons.com;
familyName = "Modulo 34";
fontMaster = (
{
alignmentZones = (
"{1280, 10}",
"{0, -10}"
);
ascender = 1280;
capHeight = 1280;
customParameters = (
{
name = familyName;
value = "Modulo 14";
}
);
descender = 0;
guideLines = (
{
position = "{1566, 470}";
},
{
angle = 90;
position = "{420, -172}";
},
{
angle = 90;
position = "{80, -216}";
},
{
position = "{1559, 810}";
},
{
angle = 90;
position = "{550, -144}";
},
{
angle = 90;
position = "{1020, -160}";
},
{
position = "{1544, 940}";
},
{
position = "{1577, 340}";
},
{
angle = 90;
position = "{1360, -200}";
},
{
angle = 90;
position = "{890, -157}";
}
);
horizontalStems = (
340
);
id = "940E2F63-624A-4C3D-A909-721782B4CF41";
verticalStems = (
340
);
weightValue = 14;
widthValue = 128;
xHeight = 1280;
}
);
glyphs = (
{
glyphname = A;
lastChange = "2014-01-05 16:04:33 +0000";
layers = (
{
layerId = "940E2F63-624A-4C3D-A909-721782B4CF41";
name = Regular;
paths = (
{
closed = 1;
nodes = (
"1020 940 LINE",
"1020 340 LINE",
"1360 340 LINE",
"1360 940 LINE"
);
},
{
closed = 1;
nodes = (
"80 470 LINE",
"80 340 LINE",
"420 340 LINE",
"420 470 LINE"
);
}
);
width = 1440;
}
);
unicode = 0041;
},
{
glyphname = B;
lastChange = "2014-01-05 16:04:33 +0000";
layers = (
{
layerId = "940E2F63-624A-4C3D-A909-721782B4CF41";
name = Regular;
paths = (
{
closed = 1;
nodes = (
"1020 940 LINE",
"1020 340 LINE",
"1360 340 LINE",
"1360 940 LINE"
);
},
{
closed = 1;
nodes = (
"80 940 LINE",
"80 340 LINE",
"420 340 LINE",
"420 940 LINE"
);
}
);
width = 1440;
}
);
unicode = 0042;
},
{
glyphname = C;
lastChange = "2014-01-05 16:04:33 +0000";
layers = (
{
layerId = "940E2F63-624A-4C3D-A909-721782B4CF41";
name = Regular;
paths = (
{
closed = 1;
nodes = (
"80 940 LINE",
"80 340 LINE",
"420 340 LINE",
"420 940 LINE"
);
}
);
width = 1440;
}
);
unicode = 0043;
},
{
glyphname = D;
lastChange = "2014-01-05 16:04:33 +0000";
layers = (
{
layerId = "940E2F63-624A-4C3D-A909-721782B4CF41";
name = Regular;
paths = (
{
closed = 1;
nodes = (
"1020 940 LINE",
"1020 340 LINE",
"1360 340 LINE",
"1360 940 LINE"
);
},
{
closed = 1;
nodes = (
"80 470 LINE",
"80 340 LINE",
"420 340 LINE",
"420 470 LINE"
);
}
);
width = 1440;
}
);
unicode = 0044;
},
{
glyphname = E;
lastChange = "2014-01-05 16:04:33 +0000";
layers = (
{
layerId = "940E2F63-624A-4C3D-A909-721782B4CF41";
name = Regular;
paths = (
{
closed = 1;
nodes = (
"80 940 LINE",
"80 340 LINE",
"420 340 LINE",
"420 940 LINE"
);
},
{
closed = 1;
nodes = (
"1020 940 LINE",
"1020 810 LINE",
"1360 810 LINE",
"1360 940 LINE"
);
}
);
width = 1440;
}
);
unicode = 0045;
},
{
glyphname = F;
lastChange = "2014-01-05 16:04:33 +0000";
layers = (
{
layerId = "940E2F63-624A-4C3D-A909-721782B4CF41";
name = Regular;
paths = (
{
closed = 1;
nodes = (
"80 940 LINE",
"80 340 LINE",
"420 340 LINE",
"420 940 LINE"
);
}
);
width = 1440;
}
);
unicode = 0046;
},
{
glyphname = H;
lastChange = "2014-01-05 16:04:33 +0000";
layers = (
{
layerId = "940E2F63-624A-4C3D-A909-721782B4CF41";
name = Regular;
paths = (
{
closed = 1;
nodes = (
"1020 940 LINE",
"1020 340 LINE",
"1360 340 LINE",
"1360 940 LINE"
);
},
{
closed = 1;
nodes = (
"80 940 LINE",
"80 340 LINE",
"420 340 LINE",
"420 940 LINE"
);
}
);
width = 1440;
}
);
unicode = 0048;
},
{
glyphname = I;
lastChange = "2014-01-05 16:04:33 +0000";
layers = (
{
layerId = "940E2F63-624A-4C3D-A909-721782B4CF41";
name = Regular;
paths = (
{
closed = 1;
nodes = (
"550 940 LINE",
"550 340 LINE",
"890 340 LINE",
"890 940 LINE"
);
}
);
width = 1440;
}
);
unicode = 0049;
},
{
glyphname = J;
lastChange = "2014-01-05 16:04:33 +0000";
layers = (
{
layerId = "940E2F63-624A-4C3D-A909-721782B4CF41";
name = Regular;
paths = (
{
closed = 1;
nodes = (
"1020 940 LINE",
"1020 340 LINE",
"1360 340 LINE",
"1360 940 LINE"
);
}
);
width = 1440;
}
);
unicode = 004A;
},
{
glyphname = K;
lastChange = "2014-01-05 16:04:33 +0000";
layers = (
{
layerId = "940E2F63-624A-4C3D-A909-721782B4CF41";
name = Regular;
paths = (
{
closed = 1;
nodes = (
"80 940 LINE",
"80 340 LINE",
"420 340 LINE",
"420 940 LINE"
);
},
{
closed = 1;
nodes = (
"550 940 LINE",
"550 810 LINE",
"890 810 LINE",
"890 940 LINE"
);
},
{
closed = 1;
nodes = (
"1020 470 LINE",
"1020 340 LINE",
"1360 340 LINE",
"1360 470 LINE"
);
}
);
width = 1440;
}
);
unicode = 004B;
},
{
glyphname = L;
lastChange = "2014-01-05 16:04:33 +0000";
layers = (
{
layerId = "940E2F63-624A-4C3D-A909-721782B4CF41";
name = Regular;
paths = (
{
closed = 1;
nodes = (
"80 940 LINE",
"80 340 LINE",
"420 340 LINE",
"420 940 LINE"
);
}
);
width = 1440;
}
);
unicode = 004C;
},
{
glyphname = M;
lastChange = "2014-01-05 16:04:33 +0000";
layers = (
{
layerId = "940E2F63-624A-4C3D-A909-721782B4CF41";
name = Regular;
paths = (
{
closed = 1;
nodes = (
"1020 940 LINE",
"1020 340 LINE",
"1360 340 LINE",
"1360 940 LINE"
);
},
{
closed = 1;
nodes = (
"80 940 LINE",
"80 340 LINE",
"420 340 LINE",
"420 940 LINE"
);
},
{
closed = 1;
nodes = (
"550 940 LINE",
"550 340 LINE",
"890 340 LINE",
"890 940 LINE"
);
}
);
width = 1440;
}
);
unicode = 004D;
},
{
glyphname = N;
lastChange = "2014-01-05 16:04:33 +0000";
layers = (
{
layerId = "940E2F63-624A-4C3D-A909-721782B4CF41";
name = Regular;
paths = (
{
closed = 1;
nodes = (
"1020 940 LINE",
"1020 340 LINE",
"1360 340 LINE",
"1360 940 LINE"
);
},
{
closed = 1;
nodes = (
"80 940 LINE",
"80 340 LINE",
"420 340 LINE",
"420 940 LINE"
);
},
{
closed = 1;
nodes = (
"550 940 LINE",
"550 340 LINE",
"890 340 LINE",
"890 940 LINE"
);
}
);
width = 1440;
}
);
unicode = 004E;
},
{
glyphname = O;
lastChange = "2014-01-05 16:04:33 +0000";
layers = (
{
layerId = "940E2F63-624A-4C3D-A909-721782B4CF41";
name = Regular;
paths = (
{
closed = 1;
nodes = (
"1020 940 LINE",
"1020 340 LINE",
"1360 340 LINE",
"1360 940 LINE"
);
},
{
closed = 1;
nodes = (
"80 940 LINE",
"80 340 LINE",
"420 340 LINE",
"420 940 LINE"
);
}
);
width = 1440;
}
);
unicode = 004F;
},
{
glyphname = P;
lastChange = "2014-01-05 16:04:33 +0000";
layers = (
{
layerId = "940E2F63-624A-4C3D-A909-721782B4CF41";
name = Regular;
paths = (
{
closed = 1;
nodes = (
"80 940 LINE",
"80 340 LINE",
"420 340 LINE",
"420 940 LINE"
);
},
{
closed = 1;
nodes = (
"1020 940 LINE",
"1020 810 LINE",
"1360 810 LINE",
"1360 940 LINE"
);
}
);
width = 1440;
}
);
unicode = 0050;
},
{
glyphname = Q;
lastChange = "2014-01-05 16:04:33 +0000";
layers = (
{
layerId = "940E2F63-624A-4C3D-A909-721782B4CF41";
name = Regular;
paths = (
{
closed = 1;
nodes = (
"1020 940 LINE",
"1020 340 LINE",
"1360 340 LINE",
"1360 940 LINE"
);
},
{
closed = 1;
nodes = (
"80 940 LINE",
"80 340 LINE",
"420 340 LINE",
"420 940 LINE"
);
},
{
closed = 1;
nodes = (
"550 470 LINE",
"550 340 LINE",
"890 340 LINE",
"890 470 LINE"
);
}
);
width = 1440;
}
);
unicode = 0051;
},
{
glyphname = R;
lastChange = "2014-01-05 16:04:33 +0000";
layers = (
{
layerId = "940E2F63-624A-4C3D-A909-721782B4CF41";
name = Regular;
paths = (
{
closed = 1;
nodes = (
"80 940 LINE",
"80 340 LINE",
"420 340 LINE",
"420 940 LINE"
);
},
{
closed = 1;
nodes = (
"550 470 LINE",
"550 340 LINE",
"890 340 LINE",
"890 470 LINE"
);
},
{
closed = 1;
nodes = (
"1020 940 LINE",
"1020 810 LINE",
"1360 810 LINE",
"1360 940 LINE"
);
}
);
width = 1440;
}
);
unicode = 0052;
},
{
glyphname = S;
lastChange = "2014-01-05 16:04:33 +0000";
layers = (
{
layerId = "940E2F63-624A-4C3D-A909-721782B4CF41";
name = Regular;
paths = (
{
closed = 1;
nodes = (
"1020 470 LINE",
"1020 340 LINE",
"1360 340 LINE",
"1360 470 LINE"
);
},
{
closed = 1;
nodes = (
"80 940 LINE",
"80 810 LINE",
"420 810 LINE",
"420 940 LINE"
);
}
);
width = 1440;
}
);
unicode = 0053;
},
{
glyphname = T;
lastChange = "2014-01-05 16:04:33 +0000";
layers = (
{
layerId = "940E2F63-624A-4C3D-A909-721782B4CF41";
name = Regular;
paths = (
{
closed = 1;
nodes = (
"550 940 LINE",
"550 340 LINE",
"890 340 LINE",
"890 940 LINE"
);
}
);
width = 1440;
}
);
unicode = 0054;
},
{
glyphname = U;
lastChange = "2014-01-05 16:04:33 +0000";
layers = (
{
layerId = "940E2F63-624A-4C3D-A909-721782B4CF41";
name = Regular;
paths = (
{
closed = 1;
nodes = (
"1020 940 LINE",
"1020 340 LINE",
"1360 340 LINE",
"1360 940 LINE"
);
},
{
closed = 1;
nodes = (
"80 940 LINE",
"80 340 LINE",
"420 340 LINE",
"420 940 LINE"
);
}
);
width = 1440;
}
);
unicode = 0055;
},
{
glyphname = V;
lastChange = "2014-01-05 16:04:33 +0000";
layers = (
{
layerId = "940E2F63-624A-4C3D-A909-721782B4CF41";
name = Regular;
paths = (
{
closed = 1;
nodes = (
"80 940 LINE",
"80 340 LINE",
"420 340 LINE",
"420 940 LINE"
);
},
{
closed = 1;
nodes = (
"550 470 LINE",
"550 340 LINE",
"890 340 LINE",
"890 470 LINE"
);
},
{
closed = 1;
nodes = (
"1020 940 LINE",
"1020 810 LINE",
"1360 810 LINE",
"1360 940 LINE"
);
}
);
width = 1440;
}
);
unicode = 0056;
},
{
glyphname = X;
lastChange = "2014-01-05 16:04:33 +0000";
layers = (
{
layerId = "940E2F63-624A-4C3D-A909-721782B4CF41";
name = Regular;
paths = (
{
closed = 1;
nodes = (
"550 940 LINE",
"550 340 LINE",
"890 340 LINE",
"890 940 LINE"
);
},
{
closed = 1;
nodes = (
"80 940 LINE",
"80 810 LINE",
"420 810 LINE",
"420 940 LINE"
);
},
{
closed = 1;
nodes = (
"1020 470 LINE",
"1020 340 LINE",
"1360 340 LINE",
"1360 470 LINE"
);
}
);
width = 1440;
}
);
unicode = 0058;
},
{
glyphname = Y;
lastChange = "2014-01-05 16:04:33 +0000";
layers = (
{
layerId = "940E2F63-624A-4C3D-A909-721782B4CF41";
name = Regular;
paths = (
{
closed = 1;
nodes = (
"1020 940 LINE",
"1020 340 LINE",
"1360 340 LINE",
"1360 940 LINE"
);
},
{
closed = 1;
nodes = (
"80 940 LINE",
"80 810 LINE",
"420 810 LINE",
"420 940 LINE"
);
}
);
width = 1440;
}
);
unicode = 0059;
},
{
glyphname = one;
lastChange = "2014-01-05 16:04:33 +0000";
layers = (
{
layerId = "940E2F63-624A-4C3D-A909-721782B4CF41";
name = Regular;
paths = (
{
closed = 1;
nodes = (
"550 940 LINE",
"550 340 LINE",
"890 340 LINE",
"890 940 LINE"
);
}
);
width = 1440;
}
);
unicode = 0031;
},
{
glyphname = three;
lastChange = "2014-01-05 16:04:33 +0000";
layers = (
{
layerId = "940E2F63-624A-4C3D-A909-721782B4CF41";
name = Regular;
paths = (
{
closed = 1;
nodes = (
"1020 940 LINE",
"1020 340 LINE",
"1360 340 LINE",
"1360 940 LINE"
);
}
);
width = 1440;
}
);
unicode = 0033;
},
{
glyphname = four;
lastChange = "2014-01-05 16:04:33 +0000";
layers = (
{
layerId = "940E2F63-624A-4C3D-A909-721782B4CF41";
name = Regular;
paths = (
{
closed = 1;
nodes = (
"1020 940 LINE",
"1020 340 LINE",
"1360 340 LINE",
"1360 940 LINE"
);
},
{
closed = 1;
nodes = (
"80 940 LINE",
"80 810 LINE",
"420 810 LINE",
"420 940 LINE"
);
}
);
width = 1440;
}
);
unicode = 0034;
},
{
glyphname = seven;
lastChange = "2014-01-05 16:04:33 +0000";
layers = (
{
layerId = "940E2F63-624A-4C3D-A909-721782B4CF41";
name = Regular;
paths = (
{
closed = 1;
nodes = (
"1020 940 LINE",
"1020 810 LINE",
"1360 810 LINE",
"1360 940 LINE"
);
},
{
closed = 1;
nodes = (
"550 470 LINE",
"550 340 LINE",
"890 340 LINE",
"890 470 LINE"
);
}
);
width = 1440;
}
);
unicode = 0037;
},
{
glyphname = eight;
lastChange = "2014-01-05 16:04:33 +0000";
layers = (
{
layerId = "940E2F63-624A-4C3D-A909-721782B4CF41";
name = Regular;
paths = (
{
closed = 1;
nodes = (
"1020 940 LINE",
"1020 340 LINE",
"1360 340 LINE",
"1360 940 LINE"
);
},
{
closed = 1;
nodes = (
"80 940 LINE",
"80 340 LINE",
"420 340 LINE",
"420 940 LINE"
);
}
);
width = 1440;
}
);
unicode = 0038;
},
{
glyphname = backslash;
lastChange = "2014-01-05 16:04:33 +0000";
layers = (
{
layerId = "940E2F63-624A-4C3D-A909-721782B4CF41";
name = Regular;
paths = (
{
closed = 1;
nodes = (
"1020 940 LINE",
"1020 340 LINE",
"1360 340 LINE",
"1360 940 LINE"
);
},
{
closed = 1;
nodes = (
"80 940 LINE",
"80 340 LINE",
"420 340 LINE",
"420 940 LINE"
);
},
{
closed = 1;
nodes = (
"550 940 LINE",
"550 340 LINE",
"890 340 LINE",
"890 940 LINE"
);
}
);
width = 1440;
}
);
unicode = 005C;
},
{
glyphname = comma;
lastChange = "2014-01-05 16:04:33 +0000";
layers = (
{
layerId = "940E2F63-624A-4C3D-A909-721782B4CF41";
name = Regular;
paths = (
{
closed = 1;
nodes = (
"1020 940 LINE",
"1020 340 LINE",
"1360 340 LINE",
"1360 940 LINE"
);
},
{
closed = 1;
nodes = (
"80 940 LINE",
"80 340 LINE",
"420 340 LINE",
"420 940 LINE"
);
},
{
closed = 1;
nodes = (
"550 940 LINE",
"550 340 LINE",
"890 340 LINE",
"890 940 LINE"
);
}
);
width = 1440;
}
);
unicode = 002C;
},
{
glyphname = exclam;
lastChange = "2014-01-05 16:04:33 +0000";
layers = (
{
layerId = "940E2F63-624A-4C3D-A909-721782B4CF41";
name = Regular;
paths = (
{
closed = 1;
nodes = (
"1020 940 LINE",
"1020 810 LINE",
"1360 810 LINE",
"1360 940 LINE"
);
},
{
closed = 1;
nodes = (
"80 940 LINE",
"80 810 LINE",
"420 810 LINE",
"420 940 LINE"
);
},
{
closed = 1;
nodes = (
"550 940 LINE",
"550 810 LINE",
"890 810 LINE",
"890 940 LINE"
);
}
);
width = 1440;
}
);
unicode = 0021;
},
{
glyphname = numbersign;
lastChange = "2014-01-05 16:04:33 +0000";
layers = (
{
guideLines = (
{
position = "{44, 89}";
showMeasurement = 1;
}
);
layerId = "940E2F63-624A-4C3D-A909-721782B4CF41";
name = Regular;
paths = (
{
closed = 1;
nodes = (
"1020 940 LINE",
"1020 340 LINE",
"1360 340 LINE",
"1360 940 LINE"
);
},
{
closed = 1;
nodes = (
"80 940 LINE",
"80 340 LINE",
"420 340 LINE",
"420 940 LINE"
);
},
{
closed = 1;
nodes = (
"550 940 LINE",
"550 340 LINE",
"890 340 LINE",
"890 940 LINE"
);
}
);
width = 1440;
}
);
unicode = 0023;
},
{
glyphname = question;
lastChange = "2014-01-05 16:04:33 +0000";
layers = (
{
layerId = "940E2F63-624A-4C3D-A909-721782B4CF41";
name = Regular;
paths = (
{
closed = 1;
nodes = (
"1020 940 LINE",
"1020 810 LINE",
"1360 810 LINE",
"1360 940 LINE"
);
}
);
width = 1440;
}
);
unicode = 003F;
},
{
glyphname = braceleft;
lastChange = "2014-01-05 16:04:33 +0000";
layers = (
{
layerId = "940E2F63-624A-4C3D-A909-721782B4CF41";
name = Regular;
paths = (
{
closed = 1;
nodes = (
"550 940 LINE",
"550 340 LINE",
"890 340 LINE",
"890 940 LINE"
);
}
);
width = 1440;
}
);
unicode = 007B;
},
{
color = 0;
glyphname = dollar;
lastChange = "2014-01-05 16:04:33 +0000";
layers = (
{
components = (
{
name = S;
transform = "{1, 0, 0, 1, 0, 0}";
}
);
layerId = "940E2F63-624A-4C3D-A909-721782B4CF41";
name = Regular;
paths = (
{
closed = 1;
nodes = (
"550 940 LINE",
"550 340 LINE",
"890 340 LINE",
"890 940 LINE"
);
}
);
width = 1440;
}
);
unicode = 0024;
},
{
color = 0;
glyphname = sterling;
lastChange = "2014-01-05 16:04:33 +0000";
layers = (
{
layerId = "940E2F63-624A-4C3D-A909-721782B4CF41";
name = Regular;
paths = (
{
closed = 1;
nodes = (
"550 940 LINE",
"550 810 LINE",
"890 810 LINE",
"890 940 LINE"
);
},
{
closed = 1;
nodes = (
"80 470 LINE",
"80 340 LINE",
"420 340 LINE",
"420 470 LINE"
);
}
);
width = 1440;
}
);
unicode = 00A3;
},
{
color = 0;
glyphname = percent;
lastChange = "2014-01-05 16:04:33 +0000";
layers = (
{
layerId = "940E2F63-624A-4C3D-A909-721782B4CF41";
name = Regular;
paths = (
{
closed = 1;
nodes = (
"1020 940 LINE",
"1020 810 LINE",
"1360 810 LINE",
"1360 940 LINE"
);
},
{
closed = 1;
nodes = (
"80 470 LINE",
"80 340 LINE",
"420 340 LINE",
"420 470 LINE"
);
}
);
width = 1440;
}
);
unicode = 0025;
},
{
glyphname = plus;
lastChange = "2014-01-05 16:04:33 +0000";
layers = (
{
layerId = "940E2F63-624A-4C3D-A909-721782B4CF41";
name = Regular;
paths = (
{
closed = 1;
nodes = (
"550 940 LINE",
"550 340 LINE",
"890 340 LINE",
"890 940 LINE"
);
}
);
width = 1440;
}
);
unicode = 002B;
},
{
glyphname = ampersand;
lastChange = "2014-01-05 16:04:33 +0000";
layers = (
{
layerId = "940E2F63-624A-4C3D-A909-721782B4CF41";
name = Regular;
paths = (
{
closed = 1;
nodes = (
"1020 940 LINE",
"1020 810 LINE",
"1360 810 LINE",
"1360 940 LINE"
);
},
{
closed = 1;
nodes = (
"80 470 LINE",
"80 340 LINE",
"420 340 LINE",
"420 470 LINE"
);
},
{
closed = 1;
nodes = (
"550 940 LINE",
"550 810 LINE",
"890 810 LINE",
"890 940 LINE"
);
}
);
width = 1440;
}
);
unicode = 0026;
},
{
color = 0;
glyphname = asciicircum;
lastChange = "2014-01-05 16:04:33 +0000";
layers = (
{
layerId = "940E2F63-624A-4C3D-A909-721782B4CF41";
name = Regular;
paths = (
{
closed = 1;
nodes = (
"1020 470 LINE",
"1020 340 LINE",
"1360 340 LINE",
"1360 470 LINE"
);
},
{
closed = 1;
nodes = (
"80 470 LINE",
"80 340 LINE",
"420 340 LINE",
"420 470 LINE"
);
},
{
closed = 1;
nodes = (
"550 940 LINE",
"550 810 LINE",
"890 810 LINE",
"890 940 LINE"
);
}
);
width = 1440;
}
);
unicode = 005E;
},
{
glyphname = degree;
lastChange = "2014-01-05 16:04:33 +0000";
layers = (
{
layerId = "940E2F63-624A-4C3D-A909-721782B4CF41";
name = Regular;
paths = (
{
closed = 1;
nodes = (
"1020 470 LINE",
"1020 340 LINE",
"1360 340 LINE",
"1360 470 LINE"
);
},
{
closed = 1;
nodes = (
"80 940 LINE",
"80 810 LINE",
"420 810 LINE",
"420 940 LINE"
);
},
{
closed = 1;
nodes = (
"550 940 LINE",
"550 810 LINE",
"890 810 LINE",
"890 940 LINE"
);
}
);
width = 1440;
}
);
unicode = 00B0;
},
